<svg width="24" height="27" viewBox="0 0 24 27" fill="none" xmlns="http://www.w3.org/2000/svg">
<path d="M17.725 7.45206L17.7581 7.4552L17.7912 7.45614C18.7173 7.48236 19.6201 7.70368 20.427 8.09843C20.8904 8.32512 21.3135 8.60465 21.687 8.92731C21.0424 9.4398 20.4901 10.0511 20.0578 10.7403C19.4054 11.7804 19.0498 12.9611 19.0326 14.1717L20.0324 14.186L19.0325 14.1872C19.0341 15.557 19.4818 16.8867 20.3057 18.0101C20.9354 18.8687 21.7619 19.5764 22.7158 20.0911C22.3136 21.0282 21.7851 21.9209 21.1401 22.7486L21.1322 22.7587L21.1246 22.7691C19.8545 24.4882 18.864 25.6119 17.4189 25.6331L17.4127 25.6332C16.652 25.6491 16.1622 25.4604 15.4781 25.1969L15.4702 25.1938C14.7515 24.917 13.8848 24.5904 12.5721 24.5904C11.2621 24.5904 10.3883 24.8912 9.64989 25.1703C9.60432 25.1875 9.55965 25.2045 9.51576 25.2211C8.86862 25.4668 8.39155 25.6478 7.69111 25.6745C7.07888 25.6944 6.46888 25.4224 5.80452 24.8582C5.13366 24.2885 4.51363 23.5127 3.88052 22.6937C2.71612 21.1529 1.6677 18.9588 1.22388 16.6817C0.778834 14.3985 0.962061 12.1546 2.08623 10.3934L2.09073 10.3864L2.09512 10.3792C2.60445 9.55104 3.34961 8.84467 4.26756 8.3381C5.18432 7.8322 6.23689 7.54606 7.32247 7.51347C8.08265 7.50043 8.856 7.73361 9.68218 8.02886C9.78053 8.06401 9.88196 8.10088 9.98495 8.13832C10.2881 8.24851 10.6047 8.36361 10.8959 8.45403C11.2866 8.5754 11.7353 8.68746 12.1839 8.68746C12.6459 8.68746 13.1328 8.5496 13.5439 8.41536C13.7675 8.34233 14.0433 8.24357 14.3171 8.14553C14.5225 8.07201 14.7267 7.99889 14.9068 7.93735C15.8641 7.61039 16.8124 7.36538 17.725 7.45206Z" fill="black" stroke="white" stroke-width="2"/>
<path d="M15.5989 3.59872L15.5929 3.6052L15.5871 3.61179C15.163 4.08908 14.618 4.48045 13.9885 4.74977C13.674 4.88433 13.3436 4.98616 13.0039 5.05356C13.0491 4.80014 13.1178 4.54956 13.21 4.3044C13.4256 3.73113 13.7664 3.19523 14.2185 2.72967L14.2187 2.72937C14.905 2.02212 15.7979 1.49608 16.7976 1.2103C16.6477 2.07413 16.2413 2.90091 15.5989 3.59872Z" fill="black" stroke="white" stroke-width="2"/>
</svg>
