<svg width="31" height="32" viewBox="0 0 31 32" fill="none" xmlns="http://www.w3.org/2000/svg">
<path fill-rule="evenodd" clip-rule="evenodd" d="M22.2462 0H8.71398C2.33416 0 0 2.33893 0 8.7318V22.3015C0 28.6944 2.33416 31.0333 8.71398 31.0333H22.2462C28.6261 31.0333 30.9635 28.6944 30.9635 22.3015V8.7318C30.97 2.33893 28.6358 0 22.2462 0Z" fill="white"/>
<path d="M6.13203 15.5166H6.95355V19.5771H6.13203V17.9274H4.27709V19.5771H3.45557V15.5166H4.27709V17.1499H6.13203V15.5166ZM10.7612 17.8392C10.7612 18.4925 10.4352 18.8519 9.84191 18.8519C9.24859 18.8519 8.91607 18.4925 8.91607 17.8033V15.5166H8.09455V17.8359C8.09455 18.976 8.72699 19.6293 9.82887 19.6293C10.9307 19.6293 11.5827 18.976 11.5827 17.8V15.5166H10.7612V17.8392ZM20.2543 18.3063L19.335 15.5166H18.6602L17.7474 18.3096L16.8509 15.5166H15.9772L17.3888 19.5771H18.0701L18.9862 16.9115L19.9055 19.5771H20.5934L22.005 15.5166H21.1508L20.2543 18.3063ZM23.4752 17.8261H24.9716V17.0911H23.4752V16.2614H25.6464V15.5166H22.6667V19.5673H25.7246V18.8355H23.4752V17.8261ZM26.7026 19.5673H27.5144V15.5166H26.7026V19.5673ZM13.2062 18.7277L12.8378 19.5705H12L13.7702 15.5166H14.4939L16.2706 19.5705H15.423L15.0742 18.731L13.2062 18.7277ZM13.5127 17.996H14.7482L14.1288 16.5456L13.5127 17.996Z" fill="black"/>
<path d="M15.4851 10.3521C14.1184 10.3512 12.808 9.80683 11.8416 8.83847C10.8752 7.8701 10.3319 6.55697 10.3311 5.1875H11.058C11.058 6.36404 11.5245 7.49238 12.3547 8.32432C13.1849 9.15626 14.311 9.62363 15.4851 9.62363C16.6593 9.62363 17.7853 9.15626 18.6155 8.32432C19.4458 7.49238 19.9122 6.36404 19.9122 5.1875H20.6392C20.6383 6.55697 20.095 7.8701 19.1286 8.83847C18.1622 9.80683 16.8518 10.3512 15.4851 10.3521V10.3521Z" fill="black"/>
</svg>
