<svg width="28" height="32" viewBox="0 0 28 32" fill="none" xmlns="http://www.w3.org/2000/svg">
<path d="M0.25 2.21144C0.25 1.56487 0.402125 1.08403 0.644209 0.759222L15.3009 15.6818V15.8164L0.652458 30.7395C0.40441 30.4289 0.25 29.9507 0.25 29.2989V2.21144Z" fill="black" stroke="white" stroke-width="0.5"/>
<path d="M26.3674 14.2013L26.3682 14.2018C27.1624 14.6575 27.5043 15.2277 27.5043 15.7492C27.5043 16.271 27.1619 16.8444 26.3673 17.3062C26.3672 17.3062 26.3671 17.3063 26.3671 17.3064L20.547 20.6763L15.7886 15.8287V15.6788L20.547 10.8312L26.3674 14.2013Z" fill="black" stroke="white" stroke-width="0.5"/>
<path d="M0.909244 31.0149L15.539 16.1108L20.2116 20.871L2.92334 30.8902C2.92303 30.8904 2.92272 30.8905 2.92241 30.8907C2.06971 31.3741 1.36598 31.3521 0.909244 31.0149Z" fill="black" stroke="white" stroke-width="0.5"/>
<path d="M15.5389 15.397L0.908657 0.507308C1.36494 0.166837 2.07106 0.136634 2.92092 0.631376L2.92148 0.631702L20.2115 10.6368L15.5389 15.397Z" fill="black" stroke="white" stroke-width="0.5"/>
<path opacity="0.2" fill-rule="evenodd" clip-rule="evenodd" d="M20.5076 20.8159L3.05843 30.9153C2.08386 31.4865 1.21425 31.4468 0.653505 30.9275L0.560547 31.0222L0.653505 31.1047C1.21425 31.6209 2.08386 31.6637 3.05843 31.0924L20.6275 20.9259L20.5076 20.8159Z" fill="black"/>
<path opacity="0.12" fill-rule="evenodd" clip-rule="evenodd" d="M26.4929 17.3455L20.4927 20.8158L20.6006 20.9258L26.478 17.5227C27.3206 17.0339 27.7344 16.3924 27.7344 15.7539C27.6834 16.3404 27.2546 16.8964 26.4929 17.3455Z" fill="black"/>
<path opacity="0.25" fill-rule="evenodd" clip-rule="evenodd" d="M3.04662 0.592466L26.493 14.1622C27.2546 14.599 27.6834 15.1703 27.7494 15.7538C27.7494 15.1153 27.3356 14.4738 26.493 13.985L3.04662 0.415284C1.36438 -0.565327 0 0.253377 0 2.21154V2.38873C0 0.427503 1.36438 -0.375925 3.04662 0.592466Z" fill="black"/>
</svg>
