<svg width="40" height="14" viewBox="0 0 40 14" fill="none" xmlns="http://www.w3.org/2000/svg">
<path d="M16.8889 8.01855H0V13.8949H16.8889V8.01855Z" fill="#84B740"/>
<path d="M16.8889 0H0V5.88149H16.8889V0Z" fill="#259BD6"/>
<path d="M33.7776 12.7007L33.7024 12.7165C33.4416 12.7689 33.3464 12.7898 33.1558 12.7898C32.7145 12.7898 32.1929 12.5542 32.1929 11.4438C32.1929 10.8729 32.2832 10.1135 33.1056 10.1135H33.1106C33.251 10.124 33.4115 10.1397 33.7123 10.234L33.7776 10.2549L33.7776 12.7007ZM33.913 7.1649L33.7776 7.19113V9.24413L33.6573 9.20744L33.6222 9.19697C33.4868 9.15508 33.1759 9.06084 32.8751 9.06084C31.2303 9.06084 30.8843 10.3597 30.8843 11.449C30.8843 12.9417 31.6866 13.8006 33.0857 13.8006C33.6774 13.8006 34.1136 13.7378 34.5549 13.5859C34.9611 13.4498 35.1065 13.2559 35.1065 12.8422V6.9502C34.7154 7.02349 34.3092 7.09679 33.913 7.1649Z" fill="#27292D"/>
<path d="M38.6671 12.737L38.5969 12.7579L38.3462 12.8261C38.1105 12.8889 37.8999 12.9256 37.7394 12.9256C37.3533 12.9256 37.1226 12.7265 37.1226 12.3862C37.1226 12.1662 37.2179 11.7943 37.8497 11.7943H38.667V12.737H38.6671ZM38.0904 9.03418C37.584 9.03418 37.0625 9.12842 36.4156 9.33794L35.9943 9.46888L36.1348 10.4639L36.546 10.3225C36.9773 10.1758 37.5138 10.0816 37.915 10.0816C38.0955 10.0816 38.6471 10.0816 38.6471 10.7048V10.9772H37.8799C36.4809 10.9772 35.834 11.4433 35.834 12.4436C35.834 13.2973 36.4307 13.8105 37.4336 13.8105C37.7445 13.8105 38.1758 13.7477 38.5468 13.6534L38.5668 13.6481L38.5869 13.6534L38.7123 13.6743C39.1034 13.7476 39.5095 13.821 39.9057 13.8995V10.6314C39.9057 9.57359 39.2939 9.03418 38.0904 9.03418Z" fill="#27292D"/>
<path d="M28.9235 12.737L28.8533 12.7579L28.6025 12.8261C28.3669 12.8889 28.1612 12.9256 27.9958 12.9256C27.6096 12.9256 27.379 12.7265 27.379 12.3862C27.379 12.1662 27.4742 11.7943 28.1011 11.7943H28.9184V12.737H28.9235ZM28.3518 9.03418C27.8403 9.03418 27.3239 9.12842 26.677 9.33794L26.2557 9.46888L26.3961 10.4639L26.8073 10.3225C27.2386 10.1758 27.7751 10.0816 28.1763 10.0816C28.3569 10.0816 28.9085 10.0816 28.9085 10.7048V10.9772H28.1413C26.7422 10.9772 26.0903 11.4433 26.0903 12.4436C26.0903 13.2973 26.6871 13.8105 27.695 13.8105C28.0059 13.8105 28.4372 13.7477 28.8082 13.6534L28.8283 13.6481L28.8483 13.6534L28.9686 13.6743C29.3648 13.7476 29.7659 13.821 30.162 13.9048V10.6366C30.1671 9.5684 29.5553 9.03418 28.3518 9.03418Z" fill="#27292D"/>
<path d="M23.6435 9.04483C23.0067 9.04483 22.4802 9.26482 22.2846 9.35906L22.2345 9.38529L22.1894 9.34859C21.9186 9.14435 21.5224 9.03955 20.9708 9.03955C20.4844 9.03955 20.0281 9.11285 19.5316 9.26473C19.1054 9.40085 18.9399 9.61565 18.9399 10.0189V13.7532H20.2738V10.3018L20.339 10.2808C20.6098 10.1866 20.7703 10.1708 20.9258 10.1708C21.3119 10.1708 21.5074 10.3855 21.5074 10.8046V13.7584H22.8212V10.7469C22.8212 10.5688 22.7861 10.4641 22.7811 10.4432L22.736 10.3541L22.8262 10.3122C23.0268 10.218 23.2475 10.1708 23.4781 10.1708C23.7438 10.1708 24.0597 10.2808 24.0597 10.8046V13.7584H25.3685V10.6684C25.3685 9.57377 24.8069 9.04483 23.6435 9.04483Z" fill="#27292D"/>
<path d="M37.6842 3.83367C37.4887 3.83367 37.1627 3.81273 36.907 3.76037L36.8318 3.74462V1.72821C36.8318 1.56058 36.8017 1.45587 36.7966 1.44012L36.7565 1.35635L36.8418 1.31965C36.8618 1.30918 36.8819 1.3039 36.907 1.29343L36.9221 1.28296C36.9521 1.27249 36.9822 1.26201 37.0123 1.25154C37.0274 1.24626 37.0374 1.24107 37.0474 1.24107C37.3433 1.1573 37.6141 1.16777 37.7344 1.1573H37.7395C38.5568 1.1573 38.6521 1.9167 38.6521 2.48761C38.647 3.59802 38.1205 3.83367 37.6842 3.83367ZM37.6792 0C37.6692 0 37.6541 0 37.6441 0C36.8769 0 36.0896 0.219988 35.8088 0.649401C35.6583 0.858918 35.5731 1.12079 35.5681 1.42974V3.50897C35.5681 3.68708 35.5329 3.75509 35.528 3.77084L35.4828 3.8599H33.0608V2.4144H33.0558C33.0257 0.890331 32.1632 0.0523563 30.9146 0.0523563H30.7692H29.6961C29.6459 0.424224 29.6058 0.686097 29.5557 1.05796H30.7692C31.406 1.05796 31.742 1.6236 31.742 2.49298V3.94895L31.6568 3.90178C31.6417 3.8965 31.5365 3.8599 31.3709 3.8599H29.2748C29.2347 4.13743 29.1846 4.49883 29.1294 4.86022H35.573C35.7937 4.81306 36.0494 4.77117 36.27 4.73457C36.596 4.9022 37.2027 4.99116 37.6189 4.99116C39.018 4.99116 39.9256 4.01178 39.9256 2.50346C39.9207 1.0108 39.0432 0.0314137 37.6792 0Z" fill="#27292D"/>
<path d="M26.3816 5.473H26.4418C27.8409 5.473 28.4927 4.99114 28.4927 3.80233C28.4927 2.9486 27.896 2.26779 26.8931 2.26779H25.6044C25.2183 2.26779 24.9876 2.03733 24.9876 1.6498C24.9876 1.38793 25.0829 1.06323 25.7147 1.06323H28.5328C28.593 0.680887 28.6231 0.439956 28.6782 0.0576172H25.7497C24.3858 0.0576172 23.6988 0.654663 23.6988 1.6498C23.6988 2.63437 24.2956 3.14765 25.2984 3.14765H26.5871C26.9732 3.14765 27.2039 3.46716 27.2039 3.80233C27.2039 4.02232 27.1086 4.47796 26.4818 4.47796H26.2662L22.1392 4.46748H21.387C20.7502 4.46748 20.3039 4.09043 20.3039 3.21576V2.61343C20.3039 1.70216 20.6499 1.13652 21.387 1.13652H22.6105C22.6657 0.748996 22.7008 0.502784 22.751 0.136198H21.2265H21.0811C19.8325 0.136198 18.97 1.01087 18.9399 2.53485V2.59249V3.21576C18.97 4.73983 19.8325 5.46781 21.0811 5.46781H21.2265H22.2996L24.5361 5.47309H25.87L26.3816 5.473Z" fill="#27292D"/>
</svg>
