<svg width="33" height="14" viewBox="0 0 33 14" fill="none" xmlns="http://www.w3.org/2000/svg">
<g clip-path="url(#clip0_15_1063)">
<path d="M6.02972 1.79831C5.64296 2.26945 5.02414 2.64106 4.40532 2.58797C4.32797 1.95093 4.63093 1.27408 4.98546 0.856022C5.37223 0.371607 6.04906 0.0265433 6.59698 0C6.66144 0.663583 6.41004 1.31389 6.02972 1.79831ZM6.59053 2.71406C5.69453 2.66097 4.92745 3.23829 4.50201 3.23829C4.07012 3.23829 3.41907 2.7406 2.71001 2.75387C1.78822 2.76714 0.930897 3.30464 0.460335 4.16067C-0.506573 5.87271 0.208939 8.4076 1.14362 9.80112C1.60129 10.4912 2.1492 11.2477 2.87116 11.2212C3.55444 11.1946 3.82517 10.7633 4.65027 10.7633C5.48181 10.7633 5.72031 11.2212 6.44227 11.2079C7.19001 11.1946 7.66057 10.5178 8.11824 9.82767C8.64037 9.04464 8.85309 8.28152 8.86598 8.2417C8.85309 8.22843 7.42207 7.66439 7.40918 5.96561C7.39629 4.54554 8.53724 3.86869 8.58881 3.82887C7.9442 2.84677 6.93862 2.7406 6.59053 2.71406ZM11.7667 0.789664V11.1349H13.3267V7.59803H15.4861C17.4586 7.59803 18.8445 6.2045 18.8445 4.18721C18.8445 2.16992 17.4844 0.789664 15.5376 0.789664H11.7667ZM13.3267 2.14337H15.1251C16.4788 2.14337 17.2523 2.88659 17.2523 4.19385C17.2523 5.5011 16.4788 6.25095 15.1187 6.25095H13.3267V2.14337ZM21.6936 11.2146C22.6734 11.2146 23.5823 10.7036 23.9949 9.89402H24.0271V11.1349H25.471V5.98552C25.471 4.49246 24.3107 3.53026 22.5252 3.53026C20.8685 3.53026 19.6438 4.50573 19.5987 5.84617H21.0039C21.1199 5.20913 21.6936 4.79107 22.48 4.79107C23.4341 4.79107 23.9691 5.24894 23.9691 6.09169V6.66237L22.0224 6.78182C20.211 6.89463 19.2312 7.65775 19.2312 8.98492C19.2312 10.3254 20.2433 11.2146 21.6936 11.2146ZM22.1126 9.98693C21.2811 9.98693 20.7525 9.57551 20.7525 8.9451C20.7525 8.29479 21.2617 7.91655 22.2351 7.85682L23.9691 7.74402V8.32797C23.9691 9.2968 23.1698 9.98693 22.1126 9.98693ZM27.3984 13.9485C28.9197 13.9485 29.6352 13.3513 30.2604 11.5397L33 3.6298H31.4143L29.5771 9.7414H29.5449L27.7078 3.6298H26.0769L28.7198 11.1615L28.578 11.6193C28.3395 12.3957 27.9527 12.6943 27.263 12.6943C27.1405 12.6943 26.902 12.6811 26.8053 12.6678V13.9087C26.8956 13.9352 27.2824 13.9485 27.3984 13.9485Z" fill="black"/>
</g>
<defs>
<clipPath id="clip0_15_1063">
<rect width="33" height="14" fill="white"/>
</clipPath>
</defs>
</svg>
