<svg width="36" height="16" viewBox="0 0 36 16" fill="none" xmlns="http://www.w3.org/2000/svg">
<path d="M31.3651 15.51H4.63929C2.06437 15.51 0 13.3307 0 10.6646V4.84542C0 2.1561 2.08657 0 4.63929 0H31.3651C33.9401 0 36.0044 2.17928 36.0044 4.84542V10.6646C36.0044 13.3307 33.9401 15.51 31.3651 15.51Z" fill="#5AFEAE"/>
<path d="M29.5228 4.98435L27.6804 12.3336V12.3568H29.1233L30.9657 5.00754H29.5228V4.98435ZM6.74813 9.15744C6.52616 9.27336 6.30418 9.31973 6.06001 9.31973C5.54947 9.31973 5.2609 9.22699 5.2165 8.7865V8.76332C5.2165 8.74013 5.2165 8.74013 5.2165 8.71695V7.44184V7.30274V6.39857V6.02763V5.88852V5.03072L3.92905 5.19301C4.79475 5.00754 5.2831 4.31202 5.2831 3.59333V3.15283H3.84026V5.21619L3.75146 5.23938V9.04152C3.79586 10.108 4.48398 10.7571 5.57166 10.7571C5.97122 10.7571 6.39297 10.6644 6.72594 10.5021L6.74813 9.15744Z" fill="#292929"/>
<path d="M6.97013 4.70599L2.93018 5.35514V6.42159L6.97013 5.77245V4.70599ZM6.97013 6.28249L2.93018 6.93164V7.95173L6.97013 7.30258V6.28249ZM11.4984 6.76935C11.4318 5.58698 10.7215 4.86828 9.56724 4.86828C8.90132 4.86828 8.34638 5.14648 7.96902 5.65653C7.59166 6.16657 7.39188 6.90845 7.39188 7.81262C7.39188 8.71679 7.59166 9.45867 7.96902 9.96872C8.34638 10.4788 8.90132 10.7338 9.56724 10.7338C10.7215 10.7338 11.4318 10.0383 11.4984 8.83271V10.6179H12.9413V5.00738L11.4984 5.23922V6.76935ZM11.5872 7.81262C11.5872 8.8559 11.0545 9.55141 10.2332 9.55141C9.38966 9.55141 8.87912 8.90226 8.87912 7.81262C8.87912 6.72298 9.38966 6.07384 10.2332 6.07384C10.6327 6.07384 10.9879 6.23612 11.2321 6.5607C11.454 6.86209 11.5872 7.30258 11.5872 7.81262ZM17.1366 4.86828C15.9823 4.86828 15.272 5.56379 15.2054 6.76935V3.36133L13.7626 3.59317V10.6179H15.2054V8.83271C15.272 10.0383 15.9823 10.7338 17.1366 10.7338C18.4907 10.7338 19.312 9.64415 19.312 7.81262C19.312 5.9811 18.4907 4.86828 17.1366 4.86828ZM16.4929 9.55141C15.6716 9.55141 15.1388 8.87908 15.1388 7.81262C15.1388 7.30258 15.272 6.86209 15.494 6.5607C15.7382 6.23612 16.0711 6.07384 16.4929 6.07384C17.3364 6.07384 17.8469 6.72298 17.8469 7.81262C17.8469 8.90226 17.3364 9.55141 16.4929 9.55141ZM23.2187 4.86828C22.0645 4.86828 21.3541 5.56379 21.2876 6.76935V3.36133L19.8447 3.59317V10.6179H21.2876V8.83271C21.3541 10.0383 22.0645 10.7338 23.2187 10.7338C24.5728 10.7338 25.3941 9.64415 25.3941 7.81262C25.3941 5.9811 24.5728 4.86828 23.2187 4.86828ZM22.575 9.55141C21.7537 9.55141 21.221 8.87908 21.221 7.81262C21.221 7.30258 21.3541 6.86209 21.5761 6.5607C21.8203 6.23612 22.1533 6.07384 22.575 6.07384C23.4185 6.07384 23.9291 6.72298 23.9291 7.81262C23.9291 8.90226 23.4185 9.55141 22.575 9.55141ZM25.3941 4.9842H26.9257L28.1688 10.6179H26.7925L25.3941 4.9842ZM32.1422 5.56379V5.1233H31.9646V5.03056H32.4307V5.1233H32.2531V5.56379H32.1422ZM32.4529 5.56379V5.00738H32.6305L32.7193 5.2624C32.7415 5.33195 32.7637 5.35514 32.7637 5.37832C32.7637 5.35514 32.7859 5.33195 32.8081 5.2624L32.8969 5.00738H33.0744V5.56379H32.9635V5.1233L32.8081 5.56379H32.6971L32.5639 5.1233V5.56379H32.4529Z" fill="#292929"/>
</svg>
